<svg xmlns="http://www.w3.org/2000/svg" width="128" height="128" viewBox="0 0 128 128">
  <defs>
    <linearGradient id="g" x1="0" y1="0" x2="0" y2="1">
      <stop offset="0" stop-color="#10263e"/>
      <stop offset="1" stop-color="#0b1b2e"/>
    </linearGradient>
  </defs>
  <rect x="0" y="0" width="128" height="128" fill="url(#g)"/>
  <g stroke="#1f3d5f" stroke-width="1" opacity="0.8">
    <path d="M0 0H128"/>
    <path d="M0 32H128"/>
    <path d="M0 64H128"/>
    <path d="M0 96H128"/>
    <path d="M0 128H128"/>
    <path d="M0 0V128"/>
    <path d="M32 0V128"/>
    <path d="M64 0V128"/>
    <path d="M96 0V128"/>
    <path d="M128 0V128"/>
  </g>
  <g fill="#76bfff" opacity="0.14">
    <circle cx="16" cy="16" r="1"/>
    <circle cx="48" cy="48" r="1"/>
    <circle cx="80" cy="80" r="1"/>
    <circle cx="112" cy="112" r="1"/>
    <circle cx="112" cy="16" r="1"/>
    <circle cx="80" cy="48" r="1"/>
    <circle cx="48" cy="80" r="1"/>
    <circle cx="16" cy="112" r="1"/>
  </g>
</svg>
