<svg xmlns="http://www.w3.org/2000/svg" width="700" height="380" viewBox="0 0 700 380">
  <rect x="0" y="0" width="700" height="380" rx="24" fill="#112a46"/>
  <rect x="10" y="10" width="680" height="360" rx="18" fill="#123151" stroke="#74c2ff" stroke-width="4"/>
  <g fill="#1c466f" opacity="0.98">
    <rect x="40" y="74" width="128" height="56" rx="10"/>
    <rect x="202" y="74" width="128" height="56" rx="10"/>
    <rect x="364" y="74" width="128" height="56" rx="10"/>
    <rect x="526" y="74" width="128" height="56" rx="10"/>
    <rect x="40" y="218" width="128" height="56" rx="10"/>
    <rect x="202" y="218" width="128" height="56" rx="10"/>
    <rect x="364" y="218" width="128" height="56" rx="10"/>
    <rect x="526" y="218" width="128" height="56" rx="10"/>
  </g>
  <g fill="#7ec6ff" opacity="0.45">
    <rect x="56" y="90" width="28" height="14" rx="3"/>
    <rect x="218" y="90" width="28" height="14" rx="3"/>
    <rect x="380" y="90" width="28" height="14" rx="3"/>
    <rect x="542" y="90" width="28" height="14" rx="3"/>
  </g>
  <text x="350" y="350" text-anchor="middle" font-family="Arial" font-size="18" fill="#b6e3ff">执行者工作大厅</text>
</svg>
