<svg xmlns="http://www.w3.org/2000/svg" width="700" height="380" viewBox="0 0 700 380">
  <rect x="0" y="0" width="700" height="380" rx="24" fill="#123151"/>
  <rect x="10" y="10" width="680" height="360" rx="18" fill="#153a5d" stroke="#93d8ff" stroke-width="4"/>
  <g fill="#285981" opacity="0.99">
    <rect x="36" y="68" width="136" height="60" rx="12"/>
    <rect x="198" y="68" width="136" height="60" rx="12"/>
    <rect x="360" y="68" width="136" height="60" rx="12"/>
    <rect x="522" y="68" width="136" height="60" rx="12"/>
    <rect x="36" y="214" width="136" height="60" rx="12"/>
    <rect x="198" y="214" width="136" height="60" rx="12"/>
    <rect x="360" y="214" width="136" height="60" rx="12"/>
    <rect x="522" y="214" width="136" height="60" rx="12"/>
  </g>
  <g fill="#99e0ff" opacity="0.5">
    <rect x="54" y="84" width="32" height="16" rx="3"/>
    <rect x="216" y="84" width="32" height="16" rx="3"/>
    <rect x="378" y="84" width="32" height="16" rx="3"/>
    <rect x="540" y="84" width="32" height="16" rx="3"/>
  </g>
  <rect x="318" y="164" width="64" height="48" rx="8" fill="#7ae0b6" opacity="0.38"/>
  <text x="350" y="350" text-anchor="middle" font-family="Arial" font-size="18" fill="#def4ff">执行者工作大厅</text>
</svg>
